<svg xmlns="http://www.w3.org/2000/svg" viewBox="0 0 100.71 112.82"><defs><style>.cls-1{fill:#86c3d0;}.cls-2{fill:#f6f6f6;}</style></defs><g id="API"><path class="cls-1" d="M50.35,14.24a43,43,0,1,0,43.05,43A43,43,0,0,0,50.35,14.24Z"/><path class="cls-1" d="M50.35,14.24a43,43,0,1,0,43.05,43A43,43,0,0,0,50.35,14.24Z"/><path class="cls-2" d="M51.11,81.34c-.81,0-1.47-.29-1.47-.65V53.23c0-.36.66-.66,1.47-.66s1.47.3,1.47.66V80.69C52.58,81.05,51.92,81.34,51.11,81.34Z"/><path class="cls-2" d="M51.11,93.28a7.44,7.44,0,1,1,7.45-7.44A7.45,7.45,0,0,1,51.11,93.28Zm0-11.94a4.5,4.5,0,1,0,4.5,4.5A4.51,4.51,0,0,0,51.11,81.34Z"/><path class="cls-2" d="M51.11,55.3a1.47,1.47,0,0,1-.77-2.73l15.28-9.34V34.71a1.48,1.48,0,1,1,2.95,0v9.35a1.49,1.49,0,0,1-.71,1.26l-16,9.77A1.54,1.54,0,0,1,51.11,55.3Z"/><path class="cls-2" d="M51.11,55.77a1.5,1.5,0,0,1-.87-.28L32.77,42.73a1.48,1.48,0,0,1-.61-1.19V32.19a1.48,1.48,0,1,1,3,0v8.6L52,53.11a1.47,1.47,0,0,1,.32,2.06A1.49,1.49,0,0,1,51.11,55.77Z"/><path class="cls-2" d="M60.64,39.07a1.47,1.47,0,0,1-1-2.51l6.45-6.45a1.47,1.47,0,0,1,2.09,0l6.45,6.45a1.47,1.47,0,0,1-2.09,2.08l-5.41-5.41-5.4,5.41A1.48,1.48,0,0,1,60.64,39.07Z"/><path class="cls-2" d="M27.09,36.69a1.47,1.47,0,0,1-1-2.51l6.45-6.45a1.46,1.46,0,0,1,2.08,0L41,34.18A1.47,1.47,0,0,1,39,36.26l-5.41-5.41-5.41,5.41A1.45,1.45,0,0,1,27.09,36.69Z"/></g></svg>